<svg xmlns="http://www.w3.org/2000/svg" id="Слой_1" enable-background="new 0 0 48 48" viewBox="0 0 48 48" x="0px" y="0px" width="48px" height="48px" version="1.1" xmlns:xml="http://www.w3.org/XML/1998/namespace" xml:space="preserve" xmlns:xlink="http://www.w3.org/1999/xlink">
<path fill="#3f51b5" d="M 42 37 c 0 2.762 -2.238 5 -5 5 H 11 c -2.761 0 -5 -2.238 -5 -5 V 11 c 0 -2.762 2.239 -5 5 -5 h 26 c 2.762 0 5 2.238 5 5 V 37 Z" />
<path fill="#ffffff" d="M 34.368 25 H 31 v 13 h -5 V 25 h -3 v -4 h 3 v -2.41 c 0.002 -3.508 1.459 -5.59 5.592 -5.59 H 35 v 4 h -2.287 C 31.104 17 31 17.6 31 18.723 V 21 h 4 L 34.368 25 Z" />
</svg>