<svg xmlns="http://www.w3.org/2000/svg" id="Слой_1" enable-background="new 0 0 48 48" viewBox="0 0 48 48" x="0px" y="0px" width="48px" height="48px" version="1.1" xmlns:xml="http://www.w3.org/XML/1998/namespace" xml:space="preserve" xmlns:xlink="http://www.w3.org/1999/xlink">
<path fill="#ff3d00" d="M 42 37 c 0 2.762 -2.238 5 -5 5 H 11 c -2.761 0 -5 -2.238 -5 -5 V 11 c 0 -2.762 2.239 -5 5 -5 h 26 c 2.762 0 5 2.238 5 5 V 37 Z" />
<g>
	<path fill="#ffffff" d="M 23.058 25.942 l -1.009 -0.773 c -0.309 -0.243 -0.736 -0.576 -0.736 -1.182 c 0 -0.604 0.427 -0.993 0.79 -1.353 c 1.18 -0.904 2.36 -1.918 2.36 -3.953 c 0 -2.096 -1.354 -3.157 -1.998 -3.769 h 1.738 L 26 14 h -5.781 c -1.513 0 -3.425 0.229 -5.019 1.528 c -1.211 1.012 -1.803 2.423 -1.803 3.688 c 0 2.147 1.689 4.329 4.663 4.329 c 0.281 0 0.589 -0.029 0.901 -0.056 c -0.142 0.334 -0.284 0.611 -0.284 1.071 c 0 0.856 0.45 1.379 0.844 1.871 c -1.265 0.086 -3.622 0.225 -5.357 1.271 C 12.505 28.67 12 30.075 12 31.063 C 12 33.102 13.961 35 18.03 35 c 4.826 0 7.38 -2.615 7.38 -5.204 C 25.41 27.901 24.292 26.962 23.058 25.942 Z M 19.379 22.774 c -2.41 0 -3.512 -3.059 -3.512 -4.903 c 0 -0.715 0.145 -1.458 0.621 -2.03 c 0.454 -0.557 1.238 -0.914 1.967 -0.914 c 2.327 0 3.534 3.083 3.534 5.068 c 0 0.491 -0.057 1.369 -0.697 2.005 C 20.838 22.44 20.085 22.774 19.379 22.774 Z M 19.407 33.847 c -3.001 0 -4.935 -1.406 -4.935 -3.36 c 0 -1.956 1.791 -2.615 2.411 -2.837 c 1.18 -0.389 2.693 -0.439 2.946 -0.439 c 0.283 0 0.424 0 0.649 0.027 c 2.13 1.486 3.053 2.228 3.053 3.634 C 23.53 32.576 22.102 33.847 19.407 33.847 Z" />
	<rect fill="#ffffff" x="31" y="20" width="2" height="8" />
	<rect fill="#ffffff" x="28" y="23" width="8" height="2" />
</g>
</svg>